<mxfile host="65bd71144e">
    <diagram id="KV5650TmRsUJZ1whkPKZ" name="Page-1">
        <mxGraphModel dx="809" dy="528" grid="1" gridSize="10" guides="1" tooltips="1" connect="1" arrows="1" fold="1" page="1" pageScale="1" pageWidth="827" pageHeight="1169" background="none" math="0" shadow="0">
            <root>
                <mxCell id="0"/>
                <mxCell id="1" parent="0"/>
                <mxCell id="11" style="edgeStyle=none;html=1;entryX=0;entryY=0.5;entryDx=0;entryDy=0;endArrow=classic;endFill=1;exitX=1;exitY=0.5;exitDx=0;exitDy=0;" parent="1" source="2" target="7" edge="1">
                    <mxGeometry relative="1" as="geometry">
                        <mxPoint x="287" y="405" as="sourcePoint"/>
                    </mxGeometry>
                </mxCell>
                <mxCell id="2" value="" style="triangle;whiteSpace=wrap;html=1;" parent="1" vertex="1">
                    <mxGeometry x="239" y="365" width="60" height="80" as="geometry"/>
                </mxCell>
                <mxCell id="3" value="" style="endArrow=classic;html=1;entryX=0;entryY=0.5;entryDx=0;entryDy=0;exitX=1.002;exitY=0.5;exitDx=0;exitDy=0;exitPerimeter=0;" parent="1" source="14" target="2" edge="1">
                    <mxGeometry width="50" height="50" relative="1" as="geometry">
                        <mxPoint x="219" y="405" as="sourcePoint"/>
                        <mxPoint x="179" y="385" as="targetPoint"/>
                    </mxGeometry>
                </mxCell>
                <mxCell id="6" value="MIC&lt;br&gt;Preamp" style="text;html=1;align=center;verticalAlign=middle;resizable=0;points=[];autosize=1;strokeColor=none;fillColor=none;" parent="1" vertex="1">
                    <mxGeometry x="229" y="325" width="70" height="40" as="geometry"/>
                </mxCell>
                <mxCell id="10" value="" style="edgeStyle=none;html=1;endArrow=none;endFill=0;entryX=0.5;entryY=0;entryDx=0;entryDy=0;" parent="1" source="7" target="42" edge="1">
                    <mxGeometry relative="1" as="geometry">
                        <mxPoint x="384" y="462" as="targetPoint"/>
                    </mxGeometry>
                </mxCell>
                <mxCell id="28" style="edgeStyle=none;html=1;entryX=0;entryY=0.5;entryDx=0;entryDy=0;endArrow=classic;endFill=1;" parent="1" source="7" target="23" edge="1">
                    <mxGeometry relative="1" as="geometry"/>
                </mxCell>
                <mxCell id="7" value="" style="triangle;whiteSpace=wrap;html=1;" parent="1" vertex="1">
                    <mxGeometry x="354" y="365" width="60" height="80" as="geometry"/>
                </mxCell>
                <mxCell id="8" value="Inst&lt;br&gt;Preamp" style="text;html=1;align=center;verticalAlign=middle;resizable=0;points=[];autosize=1;strokeColor=none;fillColor=none;" parent="1" vertex="1">
                    <mxGeometry x="344" y="325" width="70" height="40" as="geometry"/>
                </mxCell>
                <mxCell id="114" style="edgeStyle=none;html=1;entryX=0;entryY=0.5;entryDx=0;entryDy=0;" parent="1" source="13" target="113" edge="1">
                    <mxGeometry relative="1" as="geometry"/>
                </mxCell>
                <mxCell id="13" value="Señal&lt;br&gt;AUX/Línea/High-Z" style="text;html=1;align=center;verticalAlign=middle;resizable=0;points=[];autosize=1;strokeColor=none;fillColor=none;" parent="1" vertex="1">
                    <mxGeometry x="38" y="474" width="120" height="40" as="geometry"/>
                </mxCell>
                <mxCell id="14" value="Señal&lt;br&gt;Micrófono" style="text;html=1;align=center;verticalAlign=middle;resizable=0;points=[];autosize=1;strokeColor=none;fillColor=none;" parent="1" vertex="1">
                    <mxGeometry x="78" y="385" width="80" height="40" as="geometry"/>
                </mxCell>
                <mxCell id="38" style="edgeStyle=none;html=1;entryX=0;entryY=0.5;entryDx=0;entryDy=0;endArrow=classic;endFill=1;" parent="1" source="23" target="36" edge="1">
                    <mxGeometry relative="1" as="geometry"/>
                </mxCell>
                <mxCell id="23" value="" style="triangle;whiteSpace=wrap;html=1;" parent="1" vertex="1">
                    <mxGeometry x="493" y="365" width="60" height="80" as="geometry"/>
                </mxCell>
                <mxCell id="25" style="edgeStyle=none;html=1;endArrow=none;endFill=0;entryX=0;entryY=0.5;entryDx=0;entryDy=0;exitX=0;exitY=0.5;exitDx=0;exitDy=0;" parent="1" source="44" target="23" edge="1">
                    <mxGeometry relative="1" as="geometry">
                        <mxPoint x="459" y="477" as="targetPoint"/>
                        <mxPoint x="483" y="477" as="sourcePoint"/>
                        <Array as="points">
                            <mxPoint x="469" y="475"/>
                            <mxPoint x="469" y="405"/>
                        </Array>
                    </mxGeometry>
                </mxCell>
                <mxCell id="26" style="edgeStyle=none;html=1;endArrow=none;endFill=0;exitX=1;exitY=0.5;exitDx=0;exitDy=0;entryX=1;entryY=0.5;entryDx=0;entryDy=0;" parent="1" source="44" target="23" edge="1">
                    <mxGeometry relative="1" as="geometry">
                        <mxPoint x="559" y="405" as="targetPoint"/>
                        <mxPoint x="563" y="477" as="sourcePoint"/>
                        <Array as="points">
                            <mxPoint x="576" y="475"/>
                            <mxPoint x="576" y="405"/>
                        </Array>
                    </mxGeometry>
                </mxCell>
                <mxCell id="29" value="Control&lt;br&gt;Tonos" style="text;html=1;align=center;verticalAlign=middle;resizable=0;points=[];autosize=1;strokeColor=none;fillColor=none;" parent="1" vertex="1">
                    <mxGeometry x="493" y="325" width="60" height="40" as="geometry"/>
                </mxCell>
                <mxCell id="35" value="" style="edgeStyle=none;html=1;endArrow=none;endFill=0;" parent="1" source="36" edge="1">
                    <mxGeometry relative="1" as="geometry">
                        <mxPoint x="665" y="462" as="targetPoint"/>
                    </mxGeometry>
                </mxCell>
                <mxCell id="50" style="edgeStyle=none;html=1;endArrow=classic;endFill=1;" parent="1" source="36" edge="1">
                    <mxGeometry relative="1" as="geometry">
                        <mxPoint x="739" y="405" as="targetPoint"/>
                    </mxGeometry>
                </mxCell>
                <mxCell id="36" value="" style="triangle;whiteSpace=wrap;html=1;" parent="1" vertex="1">
                    <mxGeometry x="635" y="365" width="60" height="80" as="geometry"/>
                </mxCell>
                <mxCell id="39" value="Fader" style="text;html=1;align=center;verticalAlign=middle;resizable=0;points=[];autosize=1;strokeColor=none;fillColor=none;" parent="1" vertex="1">
                    <mxGeometry x="640" y="330" width="50" height="30" as="geometry"/>
                </mxCell>
                <mxCell id="40" value="Detector&lt;br&gt;de&lt;br&gt;Picos" style="whiteSpace=wrap;html=1;" parent="1" vertex="1">
                    <mxGeometry x="556" y="523" width="70" height="50" as="geometry"/>
                </mxCell>
                <mxCell id="41" value="" style="endArrow=classic;html=1;" parent="1" target="40" edge="1">
                    <mxGeometry width="50" height="50" relative="1" as="geometry">
                        <mxPoint x="591" y="405" as="sourcePoint"/>
                        <mxPoint x="591" y="505" as="targetPoint"/>
                    </mxGeometry>
                </mxCell>
                <mxCell id="42" value="Selector Ganancia" style="shape=parallelogram;perimeter=parallelogramPerimeter;whiteSpace=wrap;html=1;fixedSize=1;" parent="1" vertex="1">
                    <mxGeometry x="316.5" y="462" width="135" height="30" as="geometry"/>
                </mxCell>
                <mxCell id="44" value="Ecualizador" style="shape=parallelogram;perimeter=parallelogramPerimeter;whiteSpace=wrap;html=1;fixedSize=1;" parent="1" vertex="1">
                    <mxGeometry x="472.5" y="462" width="101" height="30" as="geometry"/>
                </mxCell>
                <mxCell id="45" value="Control de Volumen" style="shape=parallelogram;perimeter=parallelogramPerimeter;whiteSpace=wrap;html=1;fixedSize=1;" parent="1" vertex="1">
                    <mxGeometry x="595" y="463" width="140" height="30" as="geometry"/>
                </mxCell>
                <mxCell id="51" value="Salida&lt;br&gt;Canal" style="text;html=1;align=center;verticalAlign=middle;resizable=0;points=[];autosize=1;strokeColor=none;fillColor=none;" parent="1" vertex="1">
                    <mxGeometry x="730" y="385" width="60" height="40" as="geometry"/>
                </mxCell>
                <mxCell id="52" value="CANAL" style="text;html=1;align=center;verticalAlign=middle;resizable=0;points=[];autosize=1;strokeColor=none;fillColor=none;" parent="1" vertex="1">
                    <mxGeometry x="384" y="295" width="60" height="30" as="geometry"/>
                </mxCell>
                <mxCell id="53" value="MEZCLADOR" style="text;html=1;align=center;verticalAlign=middle;resizable=0;points=[];autosize=1;strokeColor=none;fillColor=none;" parent="1" vertex="1">
                    <mxGeometry x="364" y="614" width="100" height="30" as="geometry"/>
                </mxCell>
                <mxCell id="54" value="" style="triangle;whiteSpace=wrap;html=1;" parent="1" vertex="1">
                    <mxGeometry x="345" y="666" width="60" height="80" as="geometry"/>
                </mxCell>
                <mxCell id="63" style="edgeStyle=none;html=1;entryX=0;entryY=0.5;entryDx=0;entryDy=0;endArrow=classic;endFill=1;exitX=1.005;exitY=0.598;exitDx=0;exitDy=0;exitPerimeter=0;" parent="1" source="55" target="54" edge="1">
                    <mxGeometry relative="1" as="geometry">
                        <Array as="points">
                            <mxPoint x="301" y="706"/>
                        </Array>
                    </mxGeometry>
                </mxCell>
                <mxCell id="55" value="Salida Canal 1" style="text;html=1;align=center;verticalAlign=middle;resizable=0;points=[];autosize=1;strokeColor=none;fillColor=none;" parent="1" vertex="1">
                    <mxGeometry x="160" y="644" width="100" height="30" as="geometry"/>
                </mxCell>
                <mxCell id="64" style="edgeStyle=none;html=1;entryX=0;entryY=0.5;entryDx=0;entryDy=0;endArrow=classic;endFill=1;exitX=1;exitY=0.503;exitDx=0;exitDy=0;exitPerimeter=0;" parent="1" source="56" target="54" edge="1">
                    <mxGeometry relative="1" as="geometry">
                        <Array as="points">
                            <mxPoint x="301" y="706"/>
                        </Array>
                    </mxGeometry>
                </mxCell>
                <mxCell id="56" value="Salida Canal 2" style="text;html=1;align=center;verticalAlign=middle;resizable=0;points=[];autosize=1;strokeColor=none;fillColor=none;" parent="1" vertex="1">
                    <mxGeometry x="160" y="674" width="100" height="30" as="geometry"/>
                </mxCell>
                <mxCell id="65" style="edgeStyle=none;html=1;entryX=0;entryY=0.5;entryDx=0;entryDy=0;endArrow=classic;endFill=1;exitX=1.01;exitY=0.496;exitDx=0;exitDy=0;exitPerimeter=0;" parent="1" source="57" target="54" edge="1">
                    <mxGeometry relative="1" as="geometry">
                        <Array as="points">
                            <mxPoint x="301" y="706"/>
                        </Array>
                    </mxGeometry>
                </mxCell>
                <mxCell id="57" value="Salida Canal 3" style="text;html=1;align=center;verticalAlign=middle;resizable=0;points=[];autosize=1;strokeColor=none;fillColor=none;" parent="1" vertex="1">
                    <mxGeometry x="160" y="705" width="100" height="30" as="geometry"/>
                </mxCell>
                <mxCell id="66" style="edgeStyle=none;html=1;entryX=0;entryY=0.5;entryDx=0;entryDy=0;endArrow=classic;endFill=1;exitX=0.993;exitY=0.597;exitDx=0;exitDy=0;exitPerimeter=0;" parent="1" source="58" target="54" edge="1">
                    <mxGeometry relative="1" as="geometry">
                        <Array as="points">
                            <mxPoint x="301" y="706"/>
                        </Array>
                    </mxGeometry>
                </mxCell>
                <mxCell id="58" value="Salida Canal 4" style="text;html=1;align=center;verticalAlign=middle;resizable=0;points=[];autosize=1;strokeColor=none;fillColor=none;" parent="1" vertex="1">
                    <mxGeometry x="160" y="736" width="100" height="30" as="geometry"/>
                </mxCell>
                <mxCell id="67" value="Selector Ganancia" style="shape=parallelogram;perimeter=parallelogramPerimeter;whiteSpace=wrap;html=1;fixedSize=1;" parent="1" vertex="1">
                    <mxGeometry x="307" y="756" width="135" height="30" as="geometry"/>
                </mxCell>
                <mxCell id="71" style="edgeStyle=none;html=1;endArrow=classic;endFill=1;" parent="1" source="68" edge="1">
                    <mxGeometry relative="1" as="geometry">
                        <mxPoint x="600.9999999999998" y="706" as="targetPoint"/>
                    </mxGeometry>
                </mxCell>
                <mxCell id="68" value="Control de Volumen" style="shape=parallelogram;perimeter=parallelogramPerimeter;whiteSpace=wrap;html=1;fixedSize=1;" parent="1" vertex="1">
                    <mxGeometry x="413" y="691" width="140" height="30" as="geometry"/>
                </mxCell>
                <mxCell id="69" value="" style="endArrow=none;html=1;entryX=0.5;entryY=1;entryDx=0;entryDy=0;exitX=0.5;exitY=0;exitDx=0;exitDy=0;" parent="1" source="67" target="54" edge="1">
                    <mxGeometry width="50" height="50" relative="1" as="geometry">
                        <mxPoint x="361" y="676" as="sourcePoint"/>
                        <mxPoint x="411" y="626" as="targetPoint"/>
                    </mxGeometry>
                </mxCell>
                <mxCell id="70" value="" style="endArrow=classic;html=1;entryX=0;entryY=0.5;entryDx=0;entryDy=0;exitX=1;exitY=0.5;exitDx=0;exitDy=0;" parent="1" source="54" target="68" edge="1">
                    <mxGeometry width="50" height="50" relative="1" as="geometry">
                        <mxPoint x="351" y="666" as="sourcePoint"/>
                        <mxPoint x="401" y="616" as="targetPoint"/>
                    </mxGeometry>
                </mxCell>
                <mxCell id="72" value="Salida&lt;br&gt;Mezclada" style="text;html=1;align=center;verticalAlign=middle;resizable=0;points=[];autosize=1;strokeColor=none;fillColor=none;" parent="1" vertex="1">
                    <mxGeometry x="598" y="686" width="70" height="40" as="geometry"/>
                </mxCell>
                <mxCell id="73" value="AMPLIFICADOR DE POTENCIA" style="text;html=1;align=center;verticalAlign=middle;resizable=0;points=[];autosize=1;strokeColor=none;fillColor=none;" parent="1" vertex="1">
                    <mxGeometry x="314" y="845" width="200" height="30" as="geometry"/>
                </mxCell>
                <mxCell id="77" style="edgeStyle=none;html=1;endArrow=classic;endFill=1;" parent="1" source="74" edge="1">
                    <mxGeometry relative="1" as="geometry">
                        <mxPoint x="518.5" y="930" as="targetPoint"/>
                    </mxGeometry>
                </mxCell>
                <mxCell id="74" value="" style="triangle;whiteSpace=wrap;html=1;" parent="1" vertex="1">
                    <mxGeometry x="382.5" y="890" width="60" height="80" as="geometry"/>
                </mxCell>
                <mxCell id="76" style="edgeStyle=none;html=1;entryX=0;entryY=0.5;entryDx=0;entryDy=0;endArrow=classic;endFill=1;" parent="1" source="75" target="74" edge="1">
                    <mxGeometry relative="1" as="geometry"/>
                </mxCell>
                <mxCell id="75" value="Salida&lt;br&gt;Mezclada" style="text;html=1;align=center;verticalAlign=middle;resizable=0;points=[];autosize=1;strokeColor=none;fillColor=none;" parent="1" vertex="1">
                    <mxGeometry x="242.5" y="910" width="70" height="40" as="geometry"/>
                </mxCell>
                <mxCell id="78" value="Salida&lt;br&gt;a&lt;br&gt;Parlante" style="text;html=1;align=center;verticalAlign=middle;resizable=0;points=[];autosize=1;strokeColor=none;fillColor=none;" parent="1" vertex="1">
                    <mxGeometry x="515.5" y="900" width="70" height="60" as="geometry"/>
                </mxCell>
                <mxCell id="79" value="VU&lt;br&gt;Meter" style="whiteSpace=wrap;html=1;" parent="1" vertex="1">
                    <mxGeometry x="539" y="757" width="68" height="39" as="geometry"/>
                </mxCell>
                <mxCell id="80" value="" style="endArrow=classic;html=1;" parent="1" target="79" edge="1">
                    <mxGeometry width="50" height="50" relative="1" as="geometry">
                        <mxPoint x="573" y="706" as="sourcePoint"/>
                        <mxPoint x="583" y="746" as="targetPoint"/>
                    </mxGeometry>
                </mxCell>
                <mxCell id="82" value="AMPLIFICADOR DE AURICULARES" style="text;html=1;align=center;verticalAlign=middle;resizable=0;points=[];autosize=1;strokeColor=none;fillColor=none;" parent="1" vertex="1">
                    <mxGeometry x="304" y="995" width="220" height="30" as="geometry"/>
                </mxCell>
                <mxCell id="83" style="edgeStyle=none;html=1;endArrow=classic;endFill=1;" parent="1" source="84" edge="1">
                    <mxGeometry relative="1" as="geometry">
                        <mxPoint x="518" y="1075" as="targetPoint"/>
                    </mxGeometry>
                </mxCell>
                <mxCell id="84" value="" style="triangle;whiteSpace=wrap;html=1;" parent="1" vertex="1">
                    <mxGeometry x="382" y="1035" width="60" height="80" as="geometry"/>
                </mxCell>
                <mxCell id="85" style="edgeStyle=none;html=1;entryX=0;entryY=0.5;entryDx=0;entryDy=0;endArrow=classic;endFill=1;" parent="1" source="86" target="84" edge="1">
                    <mxGeometry relative="1" as="geometry"/>
                </mxCell>
                <mxCell id="86" value="Salida&lt;br&gt;Canal" style="text;html=1;align=center;verticalAlign=middle;resizable=0;points=[];autosize=1;strokeColor=none;fillColor=none;" parent="1" vertex="1">
                    <mxGeometry x="247" y="1055" width="60" height="40" as="geometry"/>
                </mxCell>
                <mxCell id="87" value="Salida&lt;br&gt;a&lt;br&gt;Auriculares" style="text;html=1;align=center;verticalAlign=middle;resizable=0;points=[];autosize=1;strokeColor=none;fillColor=none;" parent="1" vertex="1">
                    <mxGeometry x="510" y="1045" width="80" height="60" as="geometry"/>
                </mxCell>
                <mxCell id="89" value="PROYECTO" style="text;html=1;align=center;verticalAlign=middle;resizable=0;points=[];autosize=1;strokeColor=none;fillColor=none;" parent="1" vertex="1">
                    <mxGeometry x="369" y="17" width="90" height="30" as="geometry"/>
                </mxCell>
                <mxCell id="93" value="" style="edgeStyle=none;html=1;endArrow=classic;endFill=1;dashed=1;" parent="1" source="90" target="92" edge="1">
                    <mxGeometry relative="1" as="geometry"/>
                </mxCell>
                <mxCell id="90" value="Entrada&lt;br&gt;de&lt;br&gt;Audio" style="text;html=1;align=center;verticalAlign=middle;resizable=0;points=[];autosize=1;strokeColor=none;fillColor=none;" parent="1" vertex="1">
                    <mxGeometry x="128" y="137" width="70" height="60" as="geometry"/>
                </mxCell>
                <mxCell id="95" value="" style="edgeStyle=none;html=1;endArrow=classic;endFill=1;dashed=1;" parent="1" source="92" target="94" edge="1">
                    <mxGeometry relative="1" as="geometry"/>
                </mxCell>
                <mxCell id="99" style="edgeStyle=none;html=1;entryX=0;entryY=0.5;entryDx=0;entryDy=0;endArrow=classic;endFill=1;exitX=1;exitY=0.5;exitDx=0;exitDy=0;dashed=1;" parent="1" source="92" target="98" edge="1">
                    <mxGeometry relative="1" as="geometry">
                        <Array as="points">
                            <mxPoint x="417" y="167"/>
                            <mxPoint x="417" y="247"/>
                        </Array>
                    </mxGeometry>
                </mxCell>
                <mxCell id="92" value="Mezclador" style="whiteSpace=wrap;html=1;" parent="1" vertex="1">
                    <mxGeometry x="253" y="137" width="120" height="60" as="geometry"/>
                </mxCell>
                <mxCell id="97" style="edgeStyle=none;html=1;endArrow=classic;endFill=1;dashed=1;" parent="1" source="94" target="96" edge="1">
                    <mxGeometry relative="1" as="geometry"/>
                </mxCell>
                <mxCell id="94" value="Amplificador de Potencia" style="whiteSpace=wrap;html=1;" parent="1" vertex="1">
                    <mxGeometry x="453" y="137" width="120" height="60" as="geometry"/>
                </mxCell>
                <mxCell id="96" value="Salida&lt;br&gt;de&lt;br&gt;Audio" style="text;html=1;align=center;verticalAlign=middle;resizable=0;points=[];autosize=1;strokeColor=none;fillColor=none;" parent="1" vertex="1">
                    <mxGeometry x="639" y="137" width="60" height="60" as="geometry"/>
                </mxCell>
                <mxCell id="100" style="edgeStyle=none;html=1;endArrow=classic;endFill=1;dashed=1;" parent="1" source="98" edge="1">
                    <mxGeometry relative="1" as="geometry">
                        <mxPoint x="637" y="247" as="targetPoint"/>
                    </mxGeometry>
                </mxCell>
                <mxCell id="98" value="Amplificador de Auriculares" style="whiteSpace=wrap;html=1;" parent="1" vertex="1">
                    <mxGeometry x="453" y="217" width="120" height="60" as="geometry"/>
                </mxCell>
                <mxCell id="101" value="Salida&lt;br&gt;de&lt;br&gt;Audio" style="text;html=1;align=center;verticalAlign=middle;resizable=0;points=[];autosize=1;strokeColor=none;fillColor=none;" parent="1" vertex="1">
                    <mxGeometry x="639" y="217" width="60" height="60" as="geometry"/>
                </mxCell>
                <mxCell id="103" style="edgeStyle=none;html=1;endArrow=classic;endFill=1;" parent="1" source="102" target="92" edge="1">
                    <mxGeometry relative="1" as="geometry"/>
                </mxCell>
                <mxCell id="104" style="edgeStyle=none;html=1;endArrow=classic;endFill=1;entryX=0.5;entryY=0;entryDx=0;entryDy=0;exitX=1;exitY=0.5;exitDx=0;exitDy=0;" parent="1" source="102" target="94" edge="1">
                    <mxGeometry relative="1" as="geometry">
                        <mxPoint x="507" y="77" as="targetPoint"/>
                        <Array as="points">
                            <mxPoint x="513" y="77"/>
                        </Array>
                    </mxGeometry>
                </mxCell>
                <mxCell id="107" style="edgeStyle=none;html=1;entryX=0;entryY=0;entryDx=0;entryDy=0;endArrow=classic;endFill=1;exitX=0.997;exitY=0.662;exitDx=0;exitDy=0;exitPerimeter=0;" parent="1" source="102" target="98" edge="1">
                    <mxGeometry relative="1" as="geometry">
                        <mxPoint x="387" y="87" as="sourcePoint"/>
                        <Array as="points">
                            <mxPoint x="417" y="87"/>
                            <mxPoint x="437" y="217"/>
                        </Array>
                    </mxGeometry>
                </mxCell>
                <mxCell id="102" value="Fuente de&lt;br&gt;Alimentación&lt;br&gt;Regulada" style="whiteSpace=wrap;html=1;" parent="1" vertex="1">
                    <mxGeometry x="253" y="47" width="120" height="60" as="geometry"/>
                </mxCell>
                <mxCell id="106" style="edgeStyle=none;html=1;entryX=0;entryY=0.5;entryDx=0;entryDy=0;endArrow=classic;endFill=1;" parent="1" source="105" target="102" edge="1">
                    <mxGeometry relative="1" as="geometry"/>
                </mxCell>
                <mxCell id="105" value="Alimentación&lt;br&gt;monofásica" style="text;html=1;align=center;verticalAlign=middle;resizable=0;points=[];autosize=1;strokeColor=none;fillColor=none;" parent="1" vertex="1">
                    <mxGeometry x="128" y="57" width="90" height="40" as="geometry"/>
                </mxCell>
                <mxCell id="116" style="edgeStyle=none;html=1;exitX=1;exitY=0.5;exitDx=0;exitDy=0;" parent="1" source="113" edge="1">
                    <mxGeometry relative="1" as="geometry">
                        <mxPoint x="330" y="405" as="targetPoint"/>
                        <Array as="points">
                            <mxPoint x="267" y="494"/>
                        </Array>
                    </mxGeometry>
                </mxCell>
                <mxCell id="113" value="Buffer" style="triangle;whiteSpace=wrap;html=1;" parent="1" vertex="1">
                    <mxGeometry x="192.5" y="454" width="60" height="80" as="geometry"/>
                </mxCell>
            </root>
        </mxGraphModel>
    </diagram>
</mxfile>